<svg width="24" height="24" viewBox="0 0 24 24" fill="none" xmlns="http://www.w3.org/2000/svg">
<path d="M16.25 22.4998V18.6348C16.2877 18.1584 16.2233 17.6795 16.0612 17.2299C15.8991 16.7804 15.643 16.3706 15.31 16.0278C18.45 15.6778 21.75 14.4898 21.75 9.03784C21.7498 7.64285 21.2126 6.30147 20.25 5.29184C20.7058 4.07204 20.6735 2.72346 20.16 1.52684C20.16 1.52684 18.98 1.17684 16.25 3.00484C13.9579 2.38447 11.5421 2.38447 9.25001 3.00484C6.52001 1.17684 5.34001 1.52684 5.34001 1.52684C4.82649 2.72346 4.79425 4.07204 5.25001 5.29184C4.28045 6.30871 3.74278 7.66183 3.75001 9.06684C3.75001 14.4798 7.05001 15.6688 10.19 16.0578C9.86119 16.3973 9.60755 16.8022 9.44559 17.2462C9.28363 17.6902 9.217 18.1634 9.25001 18.6348V22.4998" stroke="#F21B3F" stroke-width="2" stroke-linecap="round" stroke-linejoin="round"/>
<path d="M9.25 19.5028C4.25 21.0008 4.25 17.0068 2.25 16.5068" stroke="#F21B3F" stroke-width="2" stroke-linecap="round" stroke-linejoin="round"/>
</svg>
